<svg width="11" height="17" viewBox="0 0 11 17" fill="none" xmlns="http://www.w3.org/2000/svg">
<path d="M10.5 5.42553C10.5 6.06377 10.1954 7.07853 9.67975 8.30427C9.17342 9.50774 8.49481 10.8443 7.81112 12.0969C7.1283 13.3478 6.44484 14.5069 5.93175 15.3538C5.76866 15.6229 5.62291 15.8603 5.5 16.0589C5.37709 15.8603 5.23134 15.6229 5.06825 15.3538C4.55516 14.5069 3.8717 13.3478 3.18888 12.0969C2.50519 10.8443 1.82658 9.50774 1.32025 8.30427C0.804552 7.07853 0.5 6.06377 0.5 5.42553C0.5 2.71164 2.73213 0.5 5.5 0.5C8.26787 0.5 10.5 2.71164 10.5 5.42553Z" stroke="#D7E7E7"/>
<path d="M7.56693 4.70208C7.56693 5.81787 6.6481 6.734 5.50026 6.734C4.35242 6.734 3.43359 5.81787 3.43359 4.70208C3.43359 3.58629 4.35242 2.67017 5.50026 2.67017C6.6481 2.67017 7.56693 3.58629 7.56693 4.70208Z" stroke="#D7E7E7"/>
</svg>
