<svg width="41" height="40" viewBox="0 0 41 40" fill="none" xmlns="http://www.w3.org/2000/svg">
<path fill-rule="evenodd" clip-rule="evenodd" d="M33.1332 27.8499L33.5332 29.7499C33.9122 31.3926 33.538 33.1187 32.5126 34.4568C31.4872 35.795 29.9179 36.6053 28.2332 36.6666H12.7665C11.0818 36.6053 9.51245 35.795 8.48708 34.4568C7.46171 33.1187 7.08744 31.3926 7.4665 29.7499L7.8665 27.8499C8.32656 25.2779 10.5375 23.3877 13.1498 23.3333H27.8498C30.4621 23.3877 32.6731 25.2779 33.1332 27.8499ZM28.2332 34.1499C29.0795 34.1401 29.8759 33.748 30.3998 33.0833V33.0999C31.0426 32.2936 31.2931 31.2429 31.0832 30.2333L30.6832 28.3333C30.4612 26.9252 29.2742 25.8709 27.8498 25.8166H13.1498C11.7254 25.8709 10.5384 26.9252 10.3165 28.3333L9.9165 30.2333C9.71176 31.2376 9.96194 32.281 10.5998 33.0833C11.1237 33.748 11.9202 34.1401 12.7665 34.1499H28.2332Z" fill="#5F9D9F"/>
<path fill-rule="evenodd" clip-rule="evenodd" d="M21.3334 20H19.6667C15.9848 20 13 17.0152 13 13.3333V8.93329C12.9956 7.44672 13.5842 6.01976 14.6353 4.96859C15.6865 3.91742 17.1135 3.32885 18.6 3.33329H22.4C23.8866 3.32885 25.3136 3.91742 26.3647 4.96859C27.4159 6.01976 28.0045 7.44672 28 8.93329V13.3333C28 17.0152 25.0153 20 21.3334 20ZM18.6 5.8333C16.888 5.8333 15.5 7.22122 15.5 8.9333V13.3333C15.5 15.6345 17.3655 17.5 19.6667 17.5H21.3334C23.6346 17.5 25.5 15.6345 25.5 13.3333V8.9333C25.5 8.11113 25.1734 7.32263 24.5921 6.74127C24.0107 6.15991 23.2222 5.8333 22.4 5.8333H18.6Z" fill="#5F9D9F"/>
</svg>
