<svg width="41" height="40" viewBox="0 0 41 40" fill="none" xmlns="http://www.w3.org/2000/svg">
<path fill-rule="evenodd" clip-rule="evenodd" d="M6.2832 7.08337H7.94987L8.0332 7.10004C10.3435 7.14485 12.3621 8.67228 13.0332 10.8834L13.3665 12.0334H30.7499C32.2849 12.0404 33.7425 12.7084 34.7499 13.8667C35.7544 15.0323 36.1989 16.579 35.9665 18.1L34.9665 25C34.6335 27.6449 32.3988 29.6376 29.7332 29.6667H19.9332C17.592 29.658 15.5303 28.1235 14.8499 25.8834L10.6332 11.6667C10.3103 10.447 9.21154 9.59393 7.94987 9.58337H6.2832C5.59285 9.58337 5.0332 9.02373 5.0332 8.33337C5.0332 7.64302 5.59285 7.08337 6.2832 7.08337ZM17.2499 25.0834C17.6037 26.27 18.6949 27.0834 19.9332 27.0834H29.7332C31.1127 27.0684 32.2808 26.0621 32.4999 24.7L33.4999 17.7834C33.6361 16.9783 33.414 16.1538 32.8919 15.526C32.3698 14.8982 31.5996 14.5296 30.7832 14.5167H14.1165L17.2499 25.0834Z" fill="#5F9D9F"/>
<path d="M19.55 31.6667C18.6295 31.6667 17.8833 32.4129 17.8833 33.3334C17.8833 34.2539 18.6295 35.0001 19.55 35.0001C20.4704 35.0001 21.2166 34.2539 21.2166 33.3334C21.2166 32.4129 20.4704 31.6667 19.55 31.6667Z" fill="#5F9D9F"/>
<path d="M29.55 31.6667C28.6295 31.6667 27.8833 32.4129 27.8833 33.3334C27.8833 34.2539 28.6295 35.0001 29.55 35.0001C30.4704 35.0001 31.2166 34.2539 31.2166 33.3334C31.2166 32.4129 30.4704 31.6667 29.55 31.6667Z" fill="#5F9D9F"/>
</svg>
