<svg width="49" height="48" viewBox="0 0 49 48" fill="none" xmlns="http://www.w3.org/2000/svg">
<g clip-path="url(#clip0_36_494)">
<path d="M15.595 43.5015C33.7083 43.5015 43.6155 28.4948 43.6155 15.481C43.6155 15.0548 43.6155 14.6305 43.5867 14.2081C45.5141 12.814 47.1778 11.0878 48.5 9.11048C46.7028 9.90728 44.7961 10.4296 42.8437 10.6599C44.8996 9.4293 46.4383 7.49349 47.1733 5.21288C45.2402 6.3601 43.1253 7.16853 40.9198 7.60328C39.435 6.02443 37.4712 4.97896 35.3324 4.62865C33.1935 4.27834 30.9988 4.64271 29.0879 5.66539C27.177 6.68806 25.6564 8.31203 24.7615 10.286C23.8665 12.2599 23.6471 14.4738 24.1371 16.585C20.2218 16.3886 16.3915 15.3711 12.8949 13.5985C9.39831 11.8259 6.31353 9.3378 3.8408 6.29576C2.58146 8.46375 2.19574 11.0302 2.7622 13.4726C3.32865 15.915 4.80468 18.0497 6.88976 19.442C5.32246 19.3961 3.7893 18.9733 2.42 18.2094V18.3342C2.42062 20.6079 3.2077 22.8114 4.64774 24.5709C6.08778 26.3304 8.09212 27.5377 10.3208 27.9879C8.87096 28.3834 7.34975 28.4412 5.87408 28.1569C6.50363 30.1135 7.72886 31.8246 9.37848 33.0508C11.0281 34.277 13.0197 34.957 15.0747 34.9959C13.0329 36.6009 10.6946 37.7875 8.19375 38.4879C5.69287 39.1883 3.07843 39.3888 0.5 39.0778C5.00367 41.9679 10.2438 43.5009 15.595 43.4938" fill="#5F9D9F"/>
</g>
<defs>
<clipPath id="clip0_36_494">
<rect width="48" height="48" fill="white" transform="translate(0.5)"/>
</clipPath>
</defs>
</svg>
