<svg width="49" height="48" viewBox="0 0 49 48" fill="none" xmlns="http://www.w3.org/2000/svg">
<g clip-path="url(#clip0_36_496)">
<path d="M47.5442 12.3708C47.2728 11.3496 46.738 10.4177 45.9933 9.66813C45.2485 8.9186 44.32 8.37782 43.3006 8.09991C39.5479 7.09082 24.5479 7.09082 24.5479 7.09082C24.5479 7.09082 9.54785 7.09082 5.79512 8.09991C4.77571 8.37782 3.84717 8.9186 3.10243 9.66813C2.35768 10.4177 1.82286 11.3496 1.55149 12.3708C0.547852 16.1399 0.547852 23.9999 0.547852 23.9999C0.547852 23.9999 0.547852 31.8599 1.55149 35.629C1.82286 36.6502 2.35768 37.5822 3.10243 38.3317C3.84717 39.0812 4.77571 39.622 5.79512 39.8999C9.54785 40.909 24.5479 40.909 24.5479 40.909C24.5479 40.909 39.5479 40.909 43.3006 39.8999C44.32 39.622 45.2485 39.0812 45.9933 38.3317C46.738 37.5822 47.2728 36.6502 47.5442 35.629C48.5479 31.8599 48.5479 23.9999 48.5479 23.9999C48.5479 23.9999 48.5479 16.1399 47.5442 12.3708Z" fill="#5F9D9F"/>
<path d="M19.6387 31.1373V16.8628L32.1841 24.0001L19.6387 31.1373Z" fill="#FEFEFE"/>
</g>
<defs>
<clipPath id="clip0_36_496">
<rect width="48" height="48" fill="white" transform="translate(0.5)"/>
</clipPath>
</defs>
</svg>
