<svg width="315" height="172" viewBox="0 0 315 172" fill="none" xmlns="http://www.w3.org/2000/svg">
<g filter="url(#filter0_dd_27_629)">
<path d="M20 30C20 24.4772 24.4772 20 30 20H280C285.523 20 290 24.4772 290 30V135C290 140.523 285.523 145 280 145H30C24.4771 145 20 140.523 20 135V30Z" fill="#87B6B7"/>
<path fill-rule="evenodd" clip-rule="evenodd" d="M98.0665 76.75L96.3165 75C95.4826 74.1566 94.3523 73.6722 93.1665 73.65H86.4998V72.6833C86.4998 70.152 84.4478 68.1 81.9165 68.1H68.1665C67.4761 68.1 66.9165 68.6596 66.9165 69.35C66.9165 70.0403 67.4761 70.6 68.1665 70.6H81.8665C83.0171 70.6 83.9498 71.5327 83.9498 72.6833V83.2333C83.9498 83.9237 84.5095 84.4833 85.1998 84.4833C85.8902 84.4833 86.4498 83.9237 86.4498 83.2333V76.15H93.1165C93.6689 76.1478 94.1983 76.3704 94.5832 76.7666L96.3332 78.4333C96.5718 78.6807 96.7439 78.9847 96.8332 79.3166H89.8332C89.1428 79.3166 88.5832 79.8763 88.5832 80.5666C88.5832 81.257 89.1428 81.8166 89.8332 81.8166H96.9165V88.9C96.9392 89.4668 96.7298 90.0184 96.3366 90.4273C95.9434 90.8362 95.4004 91.0671 94.8332 91.0666H92.9832C92.573 89.1437 90.8744 87.7692 88.9082 87.7692C86.9419 87.7692 85.2433 89.1437 84.8332 91.0666H75.9332C75.4846 89.079 73.6544 87.7148 71.6214 87.8527C69.5884 87.9907 67.9593 89.5897 67.7833 91.6197C67.6074 93.6498 68.9372 95.5051 70.9161 95.9908C72.895 96.4765 74.9326 95.4475 75.7165 93.5666H85.0665C85.7162 95.1136 87.2303 96.12 88.9082 96.12C90.586 96.12 92.1002 95.1136 92.7498 93.5666H94.8332C97.3645 93.5666 99.4165 91.5146 99.4165 88.9833V80C99.4188 78.7798 98.9326 77.6094 98.0665 76.75ZM71.8665 93.3C71.307 93.3273 70.7874 93.0103 70.5557 92.5003C70.3239 91.9903 70.4269 91.3905 70.8155 90.987C71.2041 90.5834 71.7996 90.4579 72.318 90.6703C72.8364 90.8826 73.1727 91.3898 73.1665 91.95C73.167 92.6765 72.5925 93.2731 71.8665 93.3ZM87.6357 92.4524C87.8462 92.9651 88.3456 93.2999 88.8998 93.3C89.6482 93.3 90.2574 92.6982 90.2665 91.95C90.2733 91.3957 89.9446 90.8923 89.4345 90.6755C88.9244 90.4587 88.3338 90.5715 87.9395 90.961C87.5452 91.3505 87.4252 91.9397 87.6357 92.4524Z" fill="white"/>
<path d="M79.4166 77.5C79.4076 76.8134 78.8532 76.259 78.1666 76.25H64.8333C64.1429 76.25 63.5833 76.8096 63.5833 77.5C63.5833 78.1904 64.1429 78.75 64.8333 78.75H78.1666C78.8532 78.741 79.4076 78.1866 79.4166 77.5Z" fill="white"/>
<path d="M78.1666 81.25H69.8333C69.1429 81.25 68.5833 81.8096 68.5833 82.5C68.5833 83.1904 69.1429 83.75 69.8333 83.75H78.1666C78.8569 83.75 79.4166 83.1904 79.4166 82.5C79.4166 81.8096 78.8569 81.25 78.1666 81.25Z" fill="white"/>
<path d="M126.744 57.3H139.718V58.47H128.07V65.022H134.232C136.364 65.022 137.984 65.4553 139.094 66.322C140.203 67.1887 140.758 68.4627 140.758 70.144C140.758 71.8773 140.168 73.2033 138.99 74.122C137.811 75.0407 136.104 75.5 133.868 75.5H126.744V57.3ZM133.894 74.382C135.714 74.382 137.092 74.0353 138.028 73.342C138.964 72.6313 139.432 71.5827 139.432 70.196C139.432 67.4747 137.586 66.114 133.894 66.114H128.07V74.382H133.894ZM150.421 66.868C152.102 66.8853 153.385 67.258 154.269 67.986C155.153 68.6967 155.595 69.7453 155.595 71.132C155.595 72.5707 155.127 73.6713 154.191 74.434C153.255 75.1967 151.903 75.5693 150.135 75.552L145.065 75.5V61.928H146.365V66.816L150.421 66.868ZM158.091 61.928H159.391V75.5H158.091V61.928ZM150.083 74.512C151.47 74.5293 152.518 74.252 153.229 73.68C153.94 73.108 154.295 72.2587 154.295 71.132C154.295 70.04 153.948 69.234 153.255 68.714C152.562 68.1767 151.504 67.8907 150.083 67.856L146.365 67.83V74.46L150.083 74.512ZM170.457 75.604C169.14 75.604 167.961 75.3093 166.921 74.72C165.881 74.1307 165.066 73.316 164.477 72.276C163.888 71.2187 163.593 70.0313 163.593 68.714C163.593 67.3793 163.888 66.192 164.477 65.152C165.066 64.0947 165.881 63.28 166.921 62.708C167.961 62.1187 169.14 61.824 170.457 61.824C171.549 61.824 172.537 62.0407 173.421 62.474C174.322 62.89 175.05 63.5053 175.605 64.32L174.643 65.022C174.158 64.346 173.551 63.8433 172.823 63.514C172.112 63.1673 171.324 62.994 170.457 62.994C169.4 62.994 168.446 63.2367 167.597 63.722C166.765 64.19 166.106 64.8573 165.621 65.724C165.153 66.5907 164.919 67.5873 164.919 68.714C164.919 69.8407 165.153 70.8373 165.621 71.704C166.106 72.5707 166.765 73.2467 167.597 73.732C168.446 74.2 169.4 74.434 170.457 74.434C171.324 74.434 172.112 74.2693 172.823 73.94C173.551 73.5933 174.158 73.082 174.643 72.406L175.605 73.108C175.05 73.9227 174.322 74.5467 173.421 74.98C172.537 75.396 171.549 75.604 170.457 75.604ZM188.213 63.098H182.909V75.5H181.609V63.098H176.305V61.928H188.213V63.098ZM197.834 61.824C199.1 61.824 200.244 62.1187 201.266 62.708C202.289 63.2973 203.086 64.112 203.658 65.152C204.248 66.192 204.542 67.3793 204.542 68.714C204.542 70.0487 204.248 71.2447 203.658 72.302C203.086 73.342 202.289 74.1567 201.266 74.746C200.244 75.318 199.1 75.604 197.834 75.604C196.638 75.604 195.555 75.3267 194.584 74.772C193.614 74.2 192.86 73.4113 192.322 72.406V80.544H191.022V61.928H192.27V65.126C192.808 64.086 193.562 63.28 194.532 62.708C195.52 62.1187 196.621 61.824 197.834 61.824ZM197.756 74.434C198.796 74.434 199.732 74.1913 200.564 73.706C201.396 73.2207 202.046 72.5447 202.514 71.678C203 70.8113 203.242 69.8233 203.242 68.714C203.242 67.6047 203 66.6167 202.514 65.75C202.046 64.8833 201.396 64.2073 200.564 63.722C199.732 63.2367 198.796 62.994 197.756 62.994C196.716 62.994 195.78 63.2367 194.948 63.722C194.134 64.2073 193.484 64.8833 192.998 65.75C192.53 66.6167 192.296 67.6047 192.296 68.714C192.296 69.8233 192.53 70.8113 192.998 71.678C193.484 72.5447 194.134 73.2207 194.948 73.706C195.78 74.1913 196.716 74.434 197.756 74.434ZM213.217 61.824C214.898 61.824 216.19 62.2573 217.091 63.124C217.992 63.9733 218.443 65.23 218.443 66.894V75.5H217.195V73.082C216.762 73.8793 216.129 74.5033 215.297 74.954C214.465 75.3873 213.468 75.604 212.307 75.604C210.799 75.604 209.603 75.2487 208.719 74.538C207.852 73.8273 207.419 72.8913 207.419 71.73C207.419 70.6033 207.818 69.6933 208.615 69C209.43 68.2893 210.721 67.934 212.489 67.934H217.143V66.842C217.143 65.5767 216.796 64.6147 216.103 63.956C215.427 63.2973 214.43 62.968 213.113 62.968C212.212 62.968 211.345 63.124 210.513 63.436C209.698 63.748 209.005 64.164 208.433 64.684L207.783 63.748C208.459 63.1413 209.274 62.6733 210.227 62.344C211.18 61.9973 212.177 61.824 213.217 61.824ZM212.489 74.538C213.616 74.538 214.569 74.278 215.349 73.758C216.146 73.238 216.744 72.484 217.143 71.496V68.948H212.515C211.18 68.948 210.21 69.1907 209.603 69.676C209.014 70.1613 208.719 70.8287 208.719 71.678C208.719 72.562 209.048 73.264 209.707 73.784C210.366 74.2867 211.293 74.538 212.489 74.538ZM233.735 61.928V75.5H232.539V70.82H228.015C227.703 70.82 227.478 70.8113 227.339 70.794L223.985 75.5H222.555L226.065 70.638C224.956 70.3953 224.106 69.9187 223.517 69.208C222.928 68.4973 222.633 67.5787 222.633 66.452C222.633 64.9613 223.127 63.8347 224.115 63.072C225.12 62.3093 226.49 61.928 228.223 61.928H233.735ZM223.933 66.504C223.933 68.7227 225.337 69.832 228.145 69.832H232.539V63.072H228.301C225.389 63.072 223.933 64.216 223.933 66.504ZM135.957 106.356V110.88H134.735V107.5H121.891V110.88H120.643V106.356H121.449C122.367 106.304 122.991 105.593 123.321 104.224C123.667 102.837 123.91 100.896 124.049 98.4L124.231 93.928H133.773V106.356H135.957ZM125.245 98.478C125.158 100.541 124.985 102.257 124.725 103.626C124.465 104.995 123.997 105.905 123.321 106.356H132.473V95.098H125.401L125.245 98.478ZM145.204 107.604C143.922 107.604 142.76 107.309 141.72 106.72C140.698 106.131 139.892 105.316 139.302 104.276C138.713 103.219 138.418 102.031 138.418 100.714C138.418 99.3967 138.713 98.218 139.302 97.178C139.892 96.1207 140.698 95.2973 141.72 94.708C142.76 94.1187 143.922 93.824 145.204 93.824C146.487 93.824 147.64 94.1187 148.662 94.708C149.702 95.2973 150.517 96.1207 151.106 97.178C151.696 98.218 151.99 99.3967 151.99 100.714C151.99 102.031 151.696 103.219 151.106 104.276C150.517 105.316 149.702 106.131 148.662 106.72C147.64 107.309 146.487 107.604 145.204 107.604ZM145.204 106.434C146.244 106.434 147.172 106.191 147.986 105.706C148.818 105.221 149.468 104.545 149.936 103.678C150.422 102.811 150.664 101.823 150.664 100.714C150.664 99.6047 150.422 98.6167 149.936 97.75C149.468 96.8833 148.818 96.2073 147.986 95.722C147.172 95.2367 146.244 94.994 145.204 94.994C144.164 94.994 143.228 95.2367 142.396 95.722C141.582 96.2073 140.932 96.8833 140.446 97.75C139.978 98.6167 139.744 99.6047 139.744 100.714C139.744 101.823 139.978 102.811 140.446 103.678C140.932 104.545 141.582 105.221 142.396 105.706C143.228 106.191 144.164 106.434 145.204 106.434ZM161.71 107.604C160.393 107.604 159.214 107.309 158.174 106.72C157.134 106.131 156.319 105.316 155.73 104.276C155.141 103.219 154.846 102.031 154.846 100.714C154.846 99.3793 155.141 98.192 155.73 97.152C156.319 96.0947 157.134 95.28 158.174 94.708C159.214 94.1187 160.393 93.824 161.71 93.824C162.802 93.824 163.79 94.0407 164.674 94.474C165.575 94.89 166.303 95.5053 166.858 96.32L165.896 97.022C165.411 96.346 164.804 95.8433 164.076 95.514C163.365 95.1673 162.577 94.994 161.71 94.994C160.653 94.994 159.699 95.2367 158.85 95.722C158.018 96.19 157.359 96.8573 156.874 97.724C156.406 98.5907 156.172 99.5873 156.172 100.714C156.172 101.841 156.406 102.837 156.874 103.704C157.359 104.571 158.018 105.247 158.85 105.732C159.699 106.2 160.653 106.434 161.71 106.434C162.577 106.434 163.365 106.269 164.076 105.94C164.804 105.593 165.411 105.082 165.896 104.406L166.858 105.108C166.303 105.923 165.575 106.547 164.674 106.98C163.79 107.396 162.802 107.604 161.71 107.604ZM179.466 95.098H174.162V107.5H172.862V95.098H167.558V93.928H179.466V95.098ZM186.747 93.824C188.429 93.824 189.72 94.2573 190.621 95.124C191.523 95.9733 191.973 97.23 191.973 98.894V107.5H190.725V105.082C190.292 105.879 189.659 106.503 188.827 106.954C187.995 107.387 186.999 107.604 185.837 107.604C184.329 107.604 183.133 107.249 182.249 106.538C181.383 105.827 180.949 104.891 180.949 103.73C180.949 102.603 181.348 101.693 182.145 101C182.96 100.289 184.251 99.934 186.019 99.934H190.673V98.842C190.673 97.5767 190.327 96.6147 189.633 95.956C188.957 95.2973 187.961 94.968 186.643 94.968C185.742 94.968 184.875 95.124 184.043 95.436C183.229 95.748 182.535 96.164 181.963 96.684L181.313 95.748C181.989 95.1413 182.804 94.6733 183.757 94.344C184.711 93.9973 185.707 93.824 186.747 93.824ZM186.019 106.538C187.146 106.538 188.099 106.278 188.879 105.758C189.677 105.238 190.275 104.484 190.673 103.496V100.948H186.045C184.711 100.948 183.74 101.191 183.133 101.676C182.544 102.161 182.249 102.829 182.249 103.678C182.249 104.562 182.579 105.264 183.237 105.784C183.896 106.287 184.823 106.538 186.019 106.538ZM205.289 100.506C207.283 100.853 208.279 101.971 208.279 103.86C208.279 105.039 207.846 105.94 206.979 106.564C206.13 107.188 204.847 107.5 203.131 107.5H197.255V93.928H202.975C204.483 93.928 205.662 94.2313 206.511 94.838C207.378 95.4273 207.811 96.2767 207.811 97.386C207.811 98.1833 207.586 98.8507 207.135 99.388C206.702 99.908 206.087 100.281 205.289 100.506ZM198.529 100.116H202.897C204.059 100.116 204.951 99.8993 205.575 99.466C206.199 99.0153 206.511 98.374 206.511 97.542C206.511 96.6927 206.199 96.06 205.575 95.644C204.969 95.2107 204.076 94.994 202.897 94.994H198.529V100.116ZM203.105 106.434C205.688 106.434 206.979 105.559 206.979 103.808C206.979 102.889 206.685 102.213 206.095 101.78C205.506 101.347 204.579 101.13 203.313 101.13H198.529V106.434H203.105ZM217.498 101.208H214.196V107.5H212.896V93.928H214.196V100.09H217.498L222.62 93.928H224.05L218.538 100.506L224.466 107.5H222.906L217.498 101.208ZM231.917 93.824C233.599 93.824 234.89 94.2573 235.791 95.124C236.693 95.9733 237.143 97.23 237.143 98.894V107.5H235.895V105.082C235.462 105.879 234.829 106.503 233.997 106.954C233.165 107.387 232.169 107.604 231.007 107.604C229.499 107.604 228.303 107.249 227.419 106.538C226.553 105.827 226.119 104.891 226.119 103.73C226.119 102.603 226.518 101.693 227.315 101C228.13 100.289 229.421 99.934 231.189 99.934H235.843V98.842C235.843 97.5767 235.497 96.6147 234.803 95.956C234.127 95.2973 233.131 94.968 231.813 94.968C230.912 94.968 230.045 95.124 229.213 95.436C228.399 95.748 227.705 96.164 227.133 96.684L226.483 95.748C227.159 95.1413 227.974 94.6733 228.927 94.344C229.881 93.9973 230.877 93.824 231.917 93.824ZM231.189 106.538C232.316 106.538 233.269 106.278 234.049 105.758C234.847 105.238 235.445 104.484 235.843 103.496V100.948H231.215C229.881 100.948 228.91 101.191 228.303 101.676C227.714 102.161 227.419 102.829 227.419 103.678C227.419 104.562 227.749 105.264 228.407 105.784C229.066 106.287 229.993 106.538 231.189 106.538Z" fill="white"/>
</g>
<defs>
<filter id="filter0_dd_27_629" x="-5" y="-3" width="320" height="175" filterUnits="userSpaceOnUse" color-interpolation-filters="sRGB">
<feFlood flood-opacity="0" result="BackgroundImageFix"/>
<feColorMatrix in="SourceAlpha" type="matrix" values="0 0 0 0 0 0 0 0 0 0 0 0 0 0 0 0 0 0 127 0" result="hardAlpha"/>
<feMorphology radius="5" operator="dilate" in="SourceAlpha" result="effect1_dropShadow_27_629"/>
<feOffset dy="2"/>
<feGaussianBlur stdDeviation="10"/>
<feComposite in2="hardAlpha" operator="out"/>
<feColorMatrix type="matrix" values="0 0 0 0 0 0 0 0 0 0 0 0 0 0 0 0 0 0 0.08 0"/>
<feBlend mode="normal" in2="BackgroundImageFix" result="effect1_dropShadow_27_629"/>
<feColorMatrix in="SourceAlpha" type="matrix" values="0 0 0 0 0 0 0 0 0 0 0 0 0 0 0 0 0 0 127 0" result="hardAlpha"/>
<feOffset dy="-2"/>
<feGaussianBlur stdDeviation="1"/>
<feComposite in2="hardAlpha" operator="out"/>
<feColorMatrix type="matrix" values="0 0 0 0 0 0 0 0 0 0 0 0 0 0 0 0 0 0 0.08 0"/>
<feBlend mode="normal" in2="effect1_dropShadow_27_629" result="effect2_dropShadow_27_629"/>
<feBlend mode="normal" in="SourceGraphic" in2="effect2_dropShadow_27_629" result="shape"/>
</filter>
</defs>
</svg>
