<svg width="320" height="172" viewBox="0 0 320 172" fill="none" xmlns="http://www.w3.org/2000/svg">
<g filter="url(#filter0_dd_27_626)">
<path d="M25 30C25 24.4772 29.4772 20 35 20H285C290.523 20 295 24.4772 295 30V135C295 140.523 290.523 145 285 145H35C29.4771 145 25 140.523 25 135V30Z" fill="#87B6B7"/>
<path d="M99.1678 77.4L89.5511 87.0166C89.0637 87.5047 89.0637 88.2953 89.5511 88.7833C89.7843 89.0194 90.1027 89.1515 90.4344 89.15C90.7666 89.1534 91.0857 89.021 91.3178 88.7833L100.934 79.1666C101.269 78.855 101.407 78.3857 101.293 77.9428C101.18 77.4999 100.834 77.1541 100.392 77.041C99.9487 76.9279 99.4794 77.0655 99.1678 77.4Z" fill="white"/>
<circle cx="90.918" cy="79.3334" r="1.25" fill="white"/>
<circle cx="99.7178" cy="86.85" r="1.25" fill="white"/>
<path fill-rule="evenodd" clip-rule="evenodd" d="M112.233 76.2024C112.783 77.6277 112.422 79.2442 111.318 80.3C110.518 81.0146 110.061 82.0361 110.061 83.1083C110.061 84.1806 110.518 85.2021 111.318 85.9167C112.471 86.9645 112.864 88.6122 112.307 90.0677C111.751 91.5232 110.359 92.4887 108.801 92.5H108.384C107.35 92.5079 106.363 92.9373 105.652 93.689C104.941 94.4408 104.568 95.4499 104.618 96.4833C104.673 97.5223 104.296 98.5379 103.576 99.2892C102.857 100.041 101.858 100.461 100.818 100.45C99.7587 100.45 98.7507 99.995 98.0511 99.2C97.3337 98.4053 96.3133 97.9518 95.2428 97.9518C94.1722 97.9518 93.1518 98.4053 92.4344 99.2C91.7348 99.995 90.7268 100.45 89.6678 100.45C88.6212 100.461 87.6172 100.037 86.8963 99.2778C86.1755 98.5191 85.8029 97.4946 85.8678 96.45C85.913 95.4194 85.5373 94.4147 84.827 93.6666C84.1166 92.9185 83.1327 92.4914 82.1011 92.4833H81.6844C80.1938 92.4126 78.8841 91.4723 78.3404 90.0826C77.7968 88.6928 78.1208 87.1134 79.1678 86.05C79.9616 85.3357 80.4149 84.3179 80.4149 83.25C80.4149 82.1821 79.9616 81.1643 79.1678 80.45C77.949 79.4151 77.5123 77.7258 78.077 76.2299C78.6417 74.734 80.0858 73.7546 81.6844 73.7833H82.1011C83.1465 73.781 84.1443 73.3463 84.8578 72.5823C85.5713 71.8183 85.9368 70.7931 85.8678 69.75C85.8313 68.7223 86.2166 67.7244 86.9343 66.9879C87.6519 66.2514 88.6395 65.8403 89.6678 65.85C90.7309 65.8471 91.7419 66.31 92.4344 67.1167C93.1589 67.9045 94.1808 68.352 95.2511 68.35C96.3156 68.3474 97.3306 67.9003 98.0511 67.1167C98.7404 66.3038 99.7519 65.8346 100.818 65.8333C101.861 65.8224 102.862 66.2448 103.583 66.9998C104.303 67.7549 104.678 68.7749 104.618 69.8167C104.568 70.8486 104.942 71.856 105.653 72.6052C106.365 73.3543 107.351 73.78 108.384 73.7833H108.801C110.328 73.8228 111.682 74.7772 112.233 76.2024ZM109.484 88.9667C109.622 88.6764 109.539 88.3296 109.284 88.1333V88.0333C107.888 86.7459 107.093 84.9329 107.093 83.0333C107.093 81.1338 107.888 79.3208 109.284 78.0333C109.539 77.8371 109.622 77.4903 109.484 77.2C109.389 76.9055 109.111 76.7089 108.801 76.7167H108.384C106.525 76.713 104.748 75.9481 103.468 74.6C102.198 73.2522 101.526 71.4499 101.601 69.6C101.629 69.4011 101.568 69.1999 101.434 69.05C101.273 68.8818 101.051 68.7857 100.818 68.7833C100.58 68.7613 100.348 68.8618 100.201 69.05C98.9211 70.4623 97.1071 71.2725 95.2011 71.2833C93.2955 71.2705 91.4823 70.4606 90.2011 69.05C90.072 68.8861 89.8764 68.7883 89.6678 68.7833C89.4347 68.7857 89.2124 68.8818 89.0511 69.05C88.9174 69.1999 88.8564 69.4011 88.8844 69.6C88.9945 71.4688 88.3293 73.3004 87.0456 74.663C85.7619 76.0256 83.9732 76.7987 82.1011 76.8H81.7344C81.4083 76.7749 81.1066 76.9738 81.0011 77.2833C80.8636 77.5736 80.9469 77.9204 81.2011 78.1167C82.61 79.3991 83.4195 81.2115 83.4344 83.1167C83.4236 85.0227 82.6134 86.8367 81.2011 88.1167C80.9469 88.3129 80.8636 88.6597 81.0011 88.95C81.0857 89.2547 81.3684 89.4615 81.6844 89.45H82.1011C83.9594 89.4571 85.7343 90.2226 87.0149 91.5692C88.2955 92.9159 88.9708 94.727 88.8844 96.5833C88.8543 96.7773 88.9159 96.9743 89.0511 97.1167C89.2312 97.2962 89.481 97.3876 89.7344 97.3667C89.9393 97.3615 90.1327 97.2709 90.2678 97.1167C91.5514 95.6827 93.3849 94.8632 95.3094 94.8632C97.234 94.8632 99.0675 95.6827 100.351 97.1167C100.467 97.2614 100.634 97.3567 100.818 97.3833C101.051 97.381 101.273 97.2849 101.434 97.1167C101.57 96.9743 101.631 96.7773 101.601 96.5833C101.533 94.7347 102.205 92.9352 103.468 91.5833C104.753 90.2417 106.527 89.4781 108.384 89.4667H108.751C109.083 89.4961 109.39 89.2868 109.484 88.9667Z" fill="white"/>
<path d="M152.777 57.8V76H151.451V68.2C149.353 69.1187 147.334 69.578 145.393 69.578C143.33 69.578 141.718 69.084 140.557 68.096C139.413 67.0907 138.841 65.6867 138.841 63.884V57.8H140.167V63.754C140.167 65.21 140.635 66.3453 141.571 67.16C142.507 67.9747 143.815 68.382 145.497 68.382C147.351 68.382 149.336 67.914 151.451 66.978V57.8H152.777ZM163.348 62.324C165.029 62.324 166.321 62.7573 167.222 63.624C168.123 64.4733 168.574 65.73 168.574 67.394V76H167.326V73.582C166.893 74.3793 166.26 75.0033 165.428 75.454C164.596 75.8873 163.599 76.104 162.438 76.104C160.93 76.104 159.734 75.7487 158.85 75.038C157.983 74.3273 157.55 73.3913 157.55 72.23C157.55 71.1033 157.949 70.1933 158.746 69.5C159.561 68.7893 160.852 68.434 162.62 68.434H167.274V67.342C167.274 66.0767 166.927 65.1147 166.234 64.456C165.558 63.7973 164.561 63.468 163.244 63.468C162.343 63.468 161.476 63.624 160.644 63.936C159.829 64.248 159.136 64.664 158.564 65.184L157.914 64.248C158.59 63.6413 159.405 63.1733 160.358 62.844C161.311 62.4973 162.308 62.324 163.348 62.324ZM162.62 75.038C163.747 75.038 164.7 74.778 165.48 74.258C166.277 73.738 166.875 72.984 167.274 71.996V69.448H162.646C161.311 69.448 160.341 69.6907 159.734 70.176C159.145 70.6613 158.85 71.3287 158.85 72.178C158.85 73.062 159.179 73.764 159.838 74.284C160.497 74.7867 161.424 75.038 162.62 75.038ZM179.342 76.104C178.025 76.104 176.846 75.8093 175.806 75.22C174.766 74.6307 173.951 73.816 173.362 72.776C172.773 71.7187 172.478 70.5313 172.478 69.214C172.478 67.8793 172.773 66.692 173.362 65.652C173.951 64.5947 174.766 63.78 175.806 63.208C176.846 62.6187 178.025 62.324 179.342 62.324C180.434 62.324 181.422 62.5407 182.306 62.974C183.207 63.39 183.935 64.0053 184.49 64.82L183.528 65.522C183.043 64.846 182.436 64.3433 181.708 64.014C180.997 63.6673 180.209 63.494 179.342 63.494C178.285 63.494 177.331 63.7367 176.482 64.222C175.65 64.69 174.991 65.3573 174.506 66.224C174.038 67.0907 173.804 68.0873 173.804 69.214C173.804 70.3407 174.038 71.3373 174.506 72.204C174.991 73.0707 175.65 73.7467 176.482 74.232C177.331 74.7 178.285 74.934 179.342 74.934C180.209 74.934 180.997 74.7693 181.708 74.44C182.436 74.0933 183.043 73.582 183.528 72.906L184.49 73.608C183.935 74.4227 183.207 75.0467 182.306 75.48C181.422 75.896 180.434 76.104 179.342 76.104ZM197.098 63.598H191.794V76H190.494V63.598H185.19V62.428H197.098V63.598ZM205.237 67.368C206.919 67.3853 208.201 67.758 209.085 68.486C209.969 69.1967 210.411 70.2453 210.411 71.632C210.411 73.0707 209.943 74.1713 209.007 74.934C208.071 75.6967 206.719 76.0693 204.951 76.052L199.881 76V62.428H201.181V67.316L205.237 67.368ZM212.907 62.428H214.207V76H212.907V62.428ZM204.899 75.012C206.286 75.0293 207.335 74.752 208.045 74.18C208.756 73.608 209.111 72.7587 209.111 71.632C209.111 70.54 208.765 69.734 208.071 69.214C207.378 68.6767 206.321 68.3907 204.899 68.356L201.181 68.33V74.96L204.899 75.012ZM231.357 69.526H219.683C219.718 70.5833 219.987 71.528 220.489 72.36C220.992 73.1747 221.668 73.8073 222.517 74.258C223.384 74.7087 224.355 74.934 225.429 74.934C226.313 74.934 227.128 74.778 227.873 74.466C228.636 74.1367 229.269 73.66 229.771 73.036L230.525 73.894C229.936 74.6047 229.191 75.1507 228.289 75.532C227.405 75.9133 226.443 76.104 225.403 76.104C224.051 76.104 222.847 75.8093 221.789 75.22C220.732 74.6307 219.9 73.816 219.293 72.776C218.704 71.736 218.409 70.5487 218.409 69.214C218.409 67.8967 218.687 66.718 219.241 65.678C219.813 64.6207 220.593 63.7973 221.581 63.208C222.569 62.6187 223.679 62.324 224.909 62.324C226.14 62.324 227.241 62.6187 228.211 63.208C229.199 63.78 229.971 64.586 230.525 65.626C231.097 66.666 231.383 67.8447 231.383 69.162L231.357 69.526ZM224.909 63.468C223.956 63.468 223.098 63.6847 222.335 64.118C221.573 64.534 220.957 65.132 220.489 65.912C220.039 66.6747 219.779 67.5413 219.709 68.512H230.109C230.057 67.5413 229.797 66.6747 229.329 65.912C228.861 65.1493 228.246 64.5513 227.483 64.118C226.721 63.6847 225.863 63.468 224.909 63.468ZM145.255 108.104C143.938 108.104 142.759 107.809 141.719 107.22C140.679 106.631 139.864 105.816 139.275 104.776C138.686 103.719 138.391 102.531 138.391 101.214C138.391 99.8793 138.686 98.692 139.275 97.652C139.864 96.5947 140.679 95.78 141.719 95.208C142.759 94.6187 143.938 94.324 145.255 94.324C146.347 94.324 147.335 94.5407 148.219 94.974C149.12 95.39 149.848 96.0053 150.403 96.82L149.441 97.522C148.956 96.846 148.349 96.3433 147.621 96.014C146.91 95.6673 146.122 95.494 145.255 95.494C144.198 95.494 143.244 95.7367 142.395 96.222C141.563 96.69 140.904 97.3573 140.419 98.224C139.951 99.0907 139.717 100.087 139.717 101.214C139.717 102.341 139.951 103.337 140.419 104.204C140.904 105.071 141.563 105.747 142.395 106.232C143.244 106.7 144.198 106.934 145.255 106.934C146.122 106.934 146.91 106.769 147.621 106.44C148.349 106.093 148.956 105.582 149.441 104.906L150.403 105.608C149.848 106.423 149.12 107.047 148.219 107.48C147.335 107.896 146.347 108.104 145.255 108.104ZM158.844 101.708H155.542V108H154.242V94.428H155.542V100.59H158.844L163.966 94.428H165.396L159.884 101.006L165.812 108H164.252L158.844 101.708ZM169.019 94.428H170.319V105.998L179.991 94.428H181.135V108H179.835V96.43L170.163 108H169.019V94.428ZM199.508 106.856V111.38H198.286V108H185.442V111.38H184.194V106.856H185C185.918 106.804 186.542 106.093 186.872 104.724C187.218 103.337 187.461 101.396 187.6 98.9L187.782 94.428H197.324V106.856H199.508ZM188.796 98.978C188.709 101.041 188.536 102.757 188.276 104.126C188.016 105.495 187.548 106.405 186.872 106.856H196.024V95.598H188.952L188.796 98.978ZM207.949 101.708H204.647V108H203.347V94.428H204.647V100.59H207.949L213.071 94.428H214.501L208.989 101.006L214.917 108H213.357L207.949 101.708ZM218.124 94.428H219.424V105.998L229.096 94.428H230.24V108H228.94V96.43L219.268 108H218.124V94.428Z" fill="white"/>
</g>
<defs>
<filter id="filter0_dd_27_626" x="0" y="-3" width="320" height="175" filterUnits="userSpaceOnUse" color-interpolation-filters="sRGB">
<feFlood flood-opacity="0" result="BackgroundImageFix"/>
<feColorMatrix in="SourceAlpha" type="matrix" values="0 0 0 0 0 0 0 0 0 0 0 0 0 0 0 0 0 0 127 0" result="hardAlpha"/>
<feMorphology radius="5" operator="dilate" in="SourceAlpha" result="effect1_dropShadow_27_626"/>
<feOffset dy="2"/>
<feGaussianBlur stdDeviation="10"/>
<feComposite in2="hardAlpha" operator="out"/>
<feColorMatrix type="matrix" values="0 0 0 0 0 0 0 0 0 0 0 0 0 0 0 0 0 0 0.08 0"/>
<feBlend mode="normal" in2="BackgroundImageFix" result="effect1_dropShadow_27_626"/>
<feColorMatrix in="SourceAlpha" type="matrix" values="0 0 0 0 0 0 0 0 0 0 0 0 0 0 0 0 0 0 127 0" result="hardAlpha"/>
<feOffset dy="-2"/>
<feGaussianBlur stdDeviation="1"/>
<feComposite in2="hardAlpha" operator="out"/>
<feColorMatrix type="matrix" values="0 0 0 0 0 0 0 0 0 0 0 0 0 0 0 0 0 0 0.08 0"/>
<feBlend mode="normal" in2="effect1_dropShadow_27_626" result="effect2_dropShadow_27_626"/>
<feBlend mode="normal" in="SourceGraphic" in2="effect2_dropShadow_27_626" result="shape"/>
</filter>
</defs>
</svg>
