<svg width="320" height="172" viewBox="0 0 320 172" fill="none" xmlns="http://www.w3.org/2000/svg">
<g filter="url(#filter0_dd_27_627)">
<path d="M25 30C25 24.4772 29.4772 20 35 20H285C290.523 20 295 24.4772 295 30V135C295 140.523 290.523 145 285 145H35C29.4771 145 25 140.523 25 135V30Z" fill="#87B6B7"/>
<path fill-rule="evenodd" clip-rule="evenodd" d="M98.767 86.4334H98.867C102.142 84.988 104.753 82.3645 106.184 79.0834V86.35C106.197 91.0077 103.439 95.227 99.167 97.0834H99.0504C97.6379 97.6815 96.1174 97.9822 94.5837 97.9667C93.1012 97.9708 91.6331 97.676 90.267 97.1L89.8337 96.9167C85.5712 95.1335 82.8067 90.9537 82.8337 86.3334V86.0334C82.8657 83.6673 83.8299 81.4093 85.517 79.75L85.817 79.4667C88.4691 76.8693 90.6563 73.8365 92.2837 70.5L94.567 65.8334C94.567 65.8334 96.9337 69.1667 99.1337 72.5C101.817 76.481 100.924 81.8643 97.1004 84.7667H97.017H96.9004C96.5034 85.2663 96.5465 85.9848 97.0004 86.4334C97.1902 86.5937 97.4361 86.6717 97.6837 86.65C98.0539 86.6345 98.4194 86.5614 98.767 86.4334ZM98.0337 94.7667H98.1504V94.75C101.483 93.2895 103.644 90.0051 103.667 86.3667C102.543 87.3559 101.258 88.1451 99.867 88.7L99.6504 88.7834C99.023 89.0276 98.3569 89.1575 97.6837 89.1667C96.7714 89.1989 95.8858 88.8555 95.2337 88.2167C93.8721 86.871 93.7428 84.7156 94.9337 83.2167C95.0791 83.035 95.2471 82.8725 95.4337 82.7334H95.5504C98.3607 80.637 99.0219 76.6993 97.0504 73.8L97.0504 73.8C96.3337 72.7334 95.617 71.6667 94.9504 70.7167L94.5337 71.5834C92.7697 75.1387 90.4139 78.3681 87.567 81.1334L87.267 81.4167C86.0565 82.6114 85.3624 84.2329 85.3337 85.9334V86.25C85.2885 89.882 87.4509 93.1783 90.8004 94.5834L91.2337 94.7667C93.4065 95.6892 95.8609 95.6892 98.0337 94.7667Z" fill="white"/>
<path d="M140.198 66.64C141.55 66.8653 142.564 67.3593 143.24 68.122C143.933 68.8847 144.28 69.8987 144.28 71.164C144.28 72.724 143.734 73.92 142.642 74.752C141.55 75.584 139.929 76 137.78 76H129.954V57.8H137.286C139.192 57.8 140.674 58.1987 141.732 58.996C142.806 59.7933 143.344 60.9373 143.344 62.428C143.344 63.4853 143.066 64.3693 142.512 65.08C141.957 65.7907 141.186 66.3107 140.198 66.64ZM131.28 66.224H137.26C138.785 66.224 139.955 65.912 140.77 65.288C141.584 64.664 141.992 63.7627 141.992 62.584C141.992 61.388 141.584 60.478 140.77 59.854C139.955 59.23 138.785 58.918 137.26 58.918H131.28V66.224ZM137.806 74.882C141.238 74.882 142.954 73.6167 142.954 71.086C142.954 69.786 142.52 68.8327 141.654 68.226C140.787 67.6193 139.504 67.316 137.806 67.316H131.28V74.882H137.806ZM154.342 67.368C156.023 67.3853 157.306 67.758 158.19 68.486C159.074 69.1967 159.516 70.2453 159.516 71.632C159.516 73.0707 159.048 74.1713 158.112 74.934C157.176 75.6967 155.824 76.0693 154.056 76.052L148.986 76V62.428H150.286V67.316L154.342 67.368ZM162.012 62.428H163.312V76H162.012V62.428ZM154.004 75.012C155.39 75.0293 156.439 74.752 157.15 74.18C157.86 73.608 158.216 72.7587 158.216 71.632C158.216 70.54 157.869 69.734 157.176 69.214C156.482 68.6767 155.425 68.3907 154.004 68.356L150.286 68.33V74.96L154.004 75.012ZM174.378 76.104C173.061 76.104 171.882 75.8093 170.842 75.22C169.802 74.6307 168.987 73.816 168.398 72.776C167.809 71.7187 167.514 70.5313 167.514 69.214C167.514 67.8793 167.809 66.692 168.398 65.652C168.987 64.5947 169.802 63.78 170.842 63.208C171.882 62.6187 173.061 62.324 174.378 62.324C175.47 62.324 176.458 62.5407 177.342 62.974C178.243 63.39 178.971 64.0053 179.526 64.82L178.564 65.522C178.079 64.846 177.472 64.3433 176.744 64.014C176.033 63.6673 175.245 63.494 174.378 63.494C173.321 63.494 172.367 63.7367 171.518 64.222C170.686 64.69 170.027 65.3573 169.542 66.224C169.074 67.0907 168.84 68.0873 168.84 69.214C168.84 70.3407 169.074 71.3373 169.542 72.204C170.027 73.0707 170.686 73.7467 171.518 74.232C172.367 74.7 173.321 74.934 174.378 74.934C175.245 74.934 176.033 74.7693 176.744 74.44C177.472 74.0933 178.079 73.582 178.564 72.906L179.526 73.608C178.971 74.4227 178.243 75.0467 177.342 75.48C176.458 75.896 175.47 76.104 174.378 76.104ZM188.544 76.104C187.261 76.104 186.1 75.8093 185.06 75.22C184.037 74.6307 183.231 73.816 182.642 72.776C182.053 71.7187 181.758 70.5313 181.758 69.214C181.758 67.8967 182.053 66.718 182.642 65.678C183.231 64.6207 184.037 63.7973 185.06 63.208C186.1 62.6187 187.261 62.324 188.544 62.324C189.827 62.324 190.979 62.6187 192.002 63.208C193.042 63.7973 193.857 64.6207 194.446 65.678C195.035 66.718 195.33 67.8967 195.33 69.214C195.33 70.5313 195.035 71.7187 194.446 72.776C193.857 73.816 193.042 74.6307 192.002 75.22C190.979 75.8093 189.827 76.104 188.544 76.104ZM188.544 74.934C189.584 74.934 190.511 74.6913 191.326 74.206C192.158 73.7207 192.808 73.0447 193.276 72.178C193.761 71.3113 194.004 70.3233 194.004 69.214C194.004 68.1047 193.761 67.1167 193.276 66.25C192.808 65.3833 192.158 64.7073 191.326 64.222C190.511 63.7367 189.584 63.494 188.544 63.494C187.504 63.494 186.568 63.7367 185.736 64.222C184.921 64.7073 184.271 65.3833 183.786 66.25C183.318 67.1167 183.084 68.1047 183.084 69.214C183.084 70.3233 183.318 71.3113 183.786 72.178C184.271 73.0447 184.921 73.7207 185.736 74.206C186.568 74.6913 187.504 74.934 188.544 74.934ZM204.166 69.708H200.864V76H199.564V62.428H200.864V68.59H204.166L209.288 62.428H210.718L205.206 69.006L211.134 76H209.574L204.166 69.708ZM219.267 76.104C217.984 76.104 216.823 75.8093 215.783 75.22C214.76 74.6307 213.954 73.816 213.365 72.776C212.775 71.7187 212.481 70.5313 212.481 69.214C212.481 67.8967 212.775 66.718 213.365 65.678C213.954 64.6207 214.76 63.7973 215.783 63.208C216.823 62.6187 217.984 62.324 219.267 62.324C220.549 62.324 221.702 62.6187 222.725 63.208C223.765 63.7973 224.579 64.6207 225.169 65.678C225.758 66.718 226.053 67.8967 226.053 69.214C226.053 70.5313 225.758 71.7187 225.169 72.776C224.579 73.816 223.765 74.6307 222.725 75.22C221.702 75.8093 220.549 76.104 219.267 76.104ZM219.267 74.934C220.307 74.934 221.234 74.6913 222.049 74.206C222.881 73.7207 223.531 73.0447 223.999 72.178C224.484 71.3113 224.727 70.3233 224.727 69.214C224.727 68.1047 224.484 67.1167 223.999 66.25C223.531 65.3833 222.881 64.7073 222.049 64.222C221.234 63.7367 220.307 63.494 219.267 63.494C218.227 63.494 217.291 63.7367 216.459 64.222C215.644 64.7073 214.994 65.3833 214.509 66.25C214.041 67.1167 213.807 68.1047 213.807 69.214C213.807 70.3233 214.041 71.3113 214.509 72.178C214.994 73.0447 215.644 73.7207 216.459 74.206C217.291 74.6913 218.227 74.934 219.267 74.934ZM241.857 69.526H230.183C230.217 70.5833 230.486 71.528 230.989 72.36C231.491 73.1747 232.167 73.8073 233.017 74.258C233.883 74.7087 234.854 74.934 235.929 74.934C236.813 74.934 237.627 74.778 238.373 74.466C239.135 74.1367 239.768 73.66 240.271 73.036L241.025 73.894C240.435 74.6047 239.69 75.1507 238.789 75.532C237.905 75.9133 236.943 76.104 235.903 76.104C234.551 76.104 233.346 75.8093 232.289 75.22C231.231 74.6307 230.399 73.816 229.793 72.776C229.203 71.736 228.909 70.5487 228.909 69.214C228.909 67.8967 229.186 66.718 229.741 65.678C230.313 64.6207 231.093 63.7973 232.081 63.208C233.069 62.6187 234.178 62.324 235.409 62.324C236.639 62.324 237.74 62.6187 238.711 63.208C239.699 63.78 240.47 64.586 241.025 65.626C241.597 66.666 241.883 67.8447 241.883 69.162L241.857 69.526ZM235.409 63.468C234.455 63.468 233.597 63.6847 232.835 64.118C232.072 64.534 231.457 65.132 230.989 65.912C230.538 66.6747 230.278 67.5413 230.209 68.512H240.609C240.557 67.5413 240.297 66.6747 239.829 65.912C239.361 65.1493 238.745 64.5513 237.983 64.118C237.22 63.6847 236.362 63.468 235.409 63.468ZM132.996 101.708H129.694V108H128.394V94.428H129.694V100.59H132.996L138.118 94.428H139.548L134.036 101.006L139.964 108H138.404L132.996 101.708ZM147.415 94.324C149.097 94.324 150.388 94.7573 151.289 95.624C152.191 96.4733 152.641 97.73 152.641 99.394V108H151.393V105.582C150.96 106.379 150.327 107.003 149.495 107.454C148.663 107.887 147.667 108.104 146.505 108.104C144.997 108.104 143.801 107.749 142.917 107.038C142.051 106.327 141.617 105.391 141.617 104.23C141.617 103.103 142.016 102.193 142.813 101.5C143.628 100.789 144.919 100.434 146.687 100.434H151.341V99.342C151.341 98.0767 150.995 97.1147 150.301 96.456C149.625 95.7973 148.629 95.468 147.311 95.468C146.41 95.468 145.543 95.624 144.711 95.936C143.897 96.248 143.203 96.664 142.631 97.184L141.981 96.248C142.657 95.6413 143.472 95.1733 144.425 94.844C145.379 94.4973 146.375 94.324 147.415 94.324ZM146.687 107.038C147.814 107.038 148.767 106.778 149.547 106.258C150.345 105.738 150.943 104.984 151.341 103.996V101.448H146.713C145.379 101.448 144.408 101.691 143.801 102.176C143.212 102.661 142.917 103.329 142.917 104.178C142.917 105.062 143.247 105.764 143.905 106.284C144.564 106.787 145.491 107.038 146.687 107.038ZM167.673 94.428V108H166.373V102.15C164.761 102.895 163.149 103.268 161.537 103.268C159.943 103.268 158.686 102.904 157.767 102.176C156.866 101.448 156.415 100.373 156.415 98.952V94.428H157.715V98.874C157.715 99.9313 158.071 100.746 158.781 101.318C159.492 101.89 160.471 102.176 161.719 102.176C163.141 102.176 164.692 101.821 166.373 101.11V94.428H167.673ZM184.855 101.526H173.181C173.215 102.583 173.484 103.528 173.987 104.36C174.489 105.175 175.165 105.807 176.015 106.258C176.881 106.709 177.852 106.934 178.927 106.934C179.811 106.934 180.625 106.778 181.371 106.466C182.133 106.137 182.766 105.66 183.269 105.036L184.023 105.894C183.433 106.605 182.688 107.151 181.787 107.532C180.903 107.913 179.941 108.104 178.901 108.104C177.549 108.104 176.344 107.809 175.287 107.22C174.229 106.631 173.397 105.816 172.791 104.776C172.201 103.736 171.907 102.549 171.907 101.214C171.907 99.8967 172.184 98.718 172.739 97.678C173.311 96.6207 174.091 95.7973 175.079 95.208C176.067 94.6187 177.176 94.324 178.407 94.324C179.637 94.324 180.738 94.6187 181.709 95.208C182.697 95.78 183.468 96.586 184.023 97.626C184.595 98.666 184.881 99.8447 184.881 101.162L184.855 101.526ZM178.407 95.468C177.453 95.468 176.595 95.6847 175.833 96.118C175.07 96.534 174.455 97.132 173.987 97.912C173.536 98.6747 173.276 99.5413 173.207 100.512H183.607C183.555 99.5413 183.295 98.6747 182.827 97.912C182.359 97.1493 181.743 96.5513 180.981 96.118C180.218 95.6847 179.36 95.468 178.407 95.468ZM194.614 108.104C193.297 108.104 192.118 107.809 191.078 107.22C190.038 106.631 189.224 105.816 188.634 104.776C188.045 103.719 187.75 102.531 187.75 101.214C187.75 99.8793 188.045 98.692 188.634 97.652C189.224 96.5947 190.038 95.78 191.078 95.208C192.118 94.6187 193.297 94.324 194.614 94.324C195.706 94.324 196.694 94.5407 197.578 94.974C198.48 95.39 199.208 96.0053 199.762 96.82L198.8 97.522C198.315 96.846 197.708 96.3433 196.98 96.014C196.27 95.6673 195.481 95.494 194.614 95.494C193.557 95.494 192.604 95.7367 191.754 96.222C190.922 96.69 190.264 97.3573 189.778 98.224C189.31 99.0907 189.076 100.087 189.076 101.214C189.076 102.341 189.31 103.337 189.778 104.204C190.264 105.071 190.922 105.747 191.754 106.232C192.604 106.7 193.557 106.934 194.614 106.934C195.481 106.934 196.27 106.769 196.98 106.44C197.708 106.093 198.315 105.582 198.8 104.906L199.762 105.608C199.208 106.423 198.48 107.047 197.578 107.48C196.694 107.896 195.706 108.104 194.614 108.104ZM212.37 95.598H207.066V108H205.766V95.598H200.462V94.428H212.37V95.598ZM223.188 101.006C225.181 101.353 226.178 102.471 226.178 104.36C226.178 105.539 225.744 106.44 224.878 107.064C224.028 107.688 222.746 108 221.03 108H215.154V94.428H220.874C222.382 94.428 223.56 94.7313 224.41 95.338C225.276 95.9273 225.71 96.7767 225.71 97.886C225.71 98.6833 225.484 99.3507 225.034 99.888C224.6 100.408 223.985 100.781 223.188 101.006ZM216.428 100.616H220.796C221.957 100.616 222.85 100.399 223.474 99.966C224.098 99.5153 224.41 98.874 224.41 98.042C224.41 97.1927 224.098 96.56 223.474 96.144C222.867 95.7107 221.974 95.494 220.796 95.494H216.428V100.616ZM221.004 106.934C223.586 106.934 224.878 106.059 224.878 104.308C224.878 103.389 224.583 102.713 223.994 102.28C223.404 101.847 222.477 101.63 221.212 101.63H216.428V106.934H221.004ZM236.202 108.104C234.92 108.104 233.758 107.809 232.718 107.22C231.696 106.631 230.89 105.816 230.3 104.776C229.711 103.719 229.416 102.531 229.416 101.214C229.416 99.8967 229.711 98.718 230.3 97.678C230.89 96.6207 231.696 95.7973 232.718 95.208C233.758 94.6187 234.92 94.324 236.202 94.324C237.485 94.324 238.638 94.6187 239.66 95.208C240.7 95.7973 241.515 96.6207 242.104 97.678C242.694 98.718 242.988 99.8967 242.988 101.214C242.988 102.531 242.694 103.719 242.104 104.776C241.515 105.816 240.7 106.631 239.66 107.22C238.638 107.809 237.485 108.104 236.202 108.104ZM236.202 106.934C237.242 106.934 238.17 106.691 238.984 106.206C239.816 105.721 240.466 105.045 240.934 104.178C241.42 103.311 241.662 102.323 241.662 101.214C241.662 100.105 241.42 99.1167 240.934 98.25C240.466 97.3833 239.816 96.7073 238.984 96.222C238.17 95.7367 237.242 95.494 236.202 95.494C235.162 95.494 234.226 95.7367 233.394 96.222C232.58 96.7073 231.93 97.3833 231.444 98.25C230.976 99.1167 230.742 100.105 230.742 101.214C230.742 102.323 230.976 103.311 231.444 104.178C231.93 105.045 232.58 105.721 233.394 106.206C234.226 106.691 235.162 106.934 236.202 106.934Z" fill="white"/>
</g>
<defs>
<filter id="filter0_dd_27_627" x="0" y="-3" width="320" height="175" filterUnits="userSpaceOnUse" color-interpolation-filters="sRGB">
<feFlood flood-opacity="0" result="BackgroundImageFix"/>
<feColorMatrix in="SourceAlpha" type="matrix" values="0 0 0 0 0 0 0 0 0 0 0 0 0 0 0 0 0 0 127 0" result="hardAlpha"/>
<feMorphology radius="5" operator="dilate" in="SourceAlpha" result="effect1_dropShadow_27_627"/>
<feOffset dy="2"/>
<feGaussianBlur stdDeviation="10"/>
<feComposite in2="hardAlpha" operator="out"/>
<feColorMatrix type="matrix" values="0 0 0 0 0 0 0 0 0 0 0 0 0 0 0 0 0 0 0.08 0"/>
<feBlend mode="normal" in2="BackgroundImageFix" result="effect1_dropShadow_27_627"/>
<feColorMatrix in="SourceAlpha" type="matrix" values="0 0 0 0 0 0 0 0 0 0 0 0 0 0 0 0 0 0 127 0" result="hardAlpha"/>
<feOffset dy="-2"/>
<feGaussianBlur stdDeviation="1"/>
<feComposite in2="hardAlpha" operator="out"/>
<feColorMatrix type="matrix" values="0 0 0 0 0 0 0 0 0 0 0 0 0 0 0 0 0 0 0.08 0"/>
<feBlend mode="normal" in2="effect1_dropShadow_27_627" result="effect2_dropShadow_27_627"/>
<feBlend mode="normal" in="SourceGraphic" in2="effect2_dropShadow_27_627" result="shape"/>
</filter>
</defs>
</svg>
