<svg width="320" height="172" viewBox="0 0 320 172" fill="none" xmlns="http://www.w3.org/2000/svg">
<g filter="url(#filter0_dd_27_628)">
<path d="M25 30C25 24.4772 29.4772 20 35 20H285C290.523 20 295 24.4772 295 30V135C295 140.523 290.523 145 285 145H35C29.4771 145 25 140.523 25 135V30Z" fill="#87B6B7"/>
<path d="M74.5999 70.4667H61.3833C60.6929 70.4667 60.1333 71.0263 60.1333 71.7167C60.1333 72.407 60.6929 72.9667 61.3833 72.9667H74.5166C77.8648 73.0575 80.5209 75.8175 80.4833 79.1667V82.7833C80.4833 86.1891 77.7224 88.95 74.3166 88.95H62.4999L65.2499 86.1667C65.4882 85.9345 65.6226 85.616 65.6226 85.2833C65.6226 84.9507 65.4882 84.6322 65.2499 84.4C64.7619 83.9126 63.9713 83.9126 63.4833 84.4L58.5999 89.2833C58.487 89.3989 58.3965 89.5346 58.3333 89.6833C58.217 89.9951 58.217 90.3383 58.3333 90.65C58.3965 90.7988 58.487 90.9344 58.5999 91.05L63.4833 95.9333C63.7164 96.1694 64.0348 96.3016 64.3666 96.3C64.6988 96.3035 65.0179 96.171 65.2499 95.9333C65.4882 95.7012 65.6226 95.3827 65.6226 95.05C65.6226 94.7174 65.4882 94.3988 65.2499 94.1667L62.4999 91.4167H74.3166C79.1031 91.4167 82.9833 87.5365 82.9833 82.75V79.1667C83.0305 74.4651 79.3 70.5938 74.5999 70.4667V70.4667Z" fill="white"/>
<path d="M105.922 57.8H118.896V58.97H107.248V65.522H113.41C115.542 65.522 117.162 65.9553 118.272 66.822C119.381 67.6887 119.936 68.9627 119.936 70.644C119.936 72.3773 119.346 73.7033 118.168 74.622C116.989 75.5407 115.282 76 113.046 76H105.922V57.8ZM113.072 74.882C114.892 74.882 116.27 74.5353 117.206 73.842C118.142 73.1313 118.61 72.0827 118.61 70.696C118.61 67.9747 116.764 66.614 113.072 66.614H107.248V74.882H113.072ZM135.813 69.526H124.139C124.173 70.5833 124.442 71.528 124.945 72.36C125.447 73.1747 126.123 73.8073 126.973 74.258C127.839 74.7087 128.81 74.934 129.885 74.934C130.769 74.934 131.583 74.778 132.329 74.466C133.091 74.1367 133.724 73.66 134.227 73.036L134.981 73.894C134.391 74.6047 133.646 75.1507 132.745 75.532C131.861 75.9133 130.899 76.104 129.859 76.104C128.507 76.104 127.302 75.8093 126.245 75.22C125.187 74.6307 124.355 73.816 123.749 72.776C123.159 71.736 122.865 70.5487 122.865 69.214C122.865 67.8967 123.142 66.718 123.697 65.678C124.269 64.6207 125.049 63.7973 126.037 63.208C127.025 62.6187 128.134 62.324 129.365 62.324C130.595 62.324 131.696 62.6187 132.667 63.208C133.655 63.78 134.426 64.586 134.981 65.626C135.553 66.666 135.839 67.8447 135.839 69.162L135.813 69.526ZM129.365 63.468C128.411 63.468 127.553 63.6847 126.791 64.118C126.028 64.534 125.413 65.132 124.945 65.912C124.494 66.6747 124.234 67.5413 124.165 68.512H134.565C134.513 67.5413 134.253 66.6747 133.785 65.912C133.317 65.1493 132.701 64.5513 131.939 64.118C131.176 63.6847 130.318 63.468 129.365 63.468ZM145.572 76.104C144.255 76.104 143.076 75.8093 142.036 75.22C140.996 74.6307 140.182 73.816 139.592 72.776C139.003 71.7187 138.708 70.5313 138.708 69.214C138.708 67.8793 139.003 66.692 139.592 65.652C140.182 64.5947 140.996 63.78 142.036 63.208C143.076 62.6187 144.255 62.324 145.572 62.324C146.664 62.324 147.652 62.5407 148.536 62.974C149.438 63.39 150.166 64.0053 150.72 64.82L149.758 65.522C149.273 64.846 148.666 64.3433 147.938 64.014C147.228 63.6673 146.439 63.494 145.572 63.494C144.515 63.494 143.562 63.7367 142.712 64.222C141.88 64.69 141.222 65.3573 140.736 66.224C140.268 67.0907 140.034 68.0873 140.034 69.214C140.034 70.3407 140.268 71.3373 140.736 72.204C141.222 73.0707 141.88 73.7467 142.712 74.232C143.562 74.7 144.515 74.934 145.572 74.934C146.439 74.934 147.228 74.7693 147.938 74.44C148.666 74.0933 149.273 73.582 149.758 72.906L150.72 73.608C150.166 74.4227 149.438 75.0467 148.536 75.48C147.652 75.896 146.664 76.104 145.572 76.104ZM166.415 62.428V76H165.115V63.598H155.859V76H154.559V62.428H166.415ZM182.636 62.428V76H181.336V63.598H174.264L174.082 67.212C173.978 69.084 173.822 70.6527 173.614 71.918C173.406 73.1833 173.05 74.206 172.548 74.986C172.045 75.766 171.352 76.156 170.468 76.156C170.208 76.156 169.835 76.0953 169.35 75.974L169.48 74.856C169.757 74.9253 169.965 74.96 170.104 74.96C170.832 74.96 171.386 74.6047 171.768 73.894C172.149 73.1833 172.409 72.2993 172.548 71.242C172.686 70.1847 172.799 68.8067 172.886 67.108L173.12 62.428H182.636ZM192.75 62.324C194.432 62.324 195.723 62.7573 196.624 63.624C197.526 64.4733 197.976 65.73 197.976 67.394V76H196.728V73.582C196.295 74.3793 195.662 75.0033 194.83 75.454C193.998 75.8873 193.002 76.104 191.84 76.104C190.332 76.104 189.136 75.7487 188.252 75.038C187.386 74.3273 186.952 73.3913 186.952 72.23C186.952 71.1033 187.351 70.1933 188.148 69.5C188.963 68.7893 190.254 68.434 192.022 68.434H196.676V67.342C196.676 66.0767 196.33 65.1147 195.636 64.456C194.96 63.7973 193.964 63.468 192.646 63.468C191.745 63.468 190.878 63.624 190.046 63.936C189.232 64.248 188.538 64.664 187.966 65.184L187.316 64.248C187.992 63.6413 188.807 63.1733 189.76 62.844C190.714 62.4973 191.71 62.324 192.75 62.324ZM192.022 75.038C193.149 75.038 194.102 74.778 194.882 74.258C195.68 73.738 196.278 72.984 196.676 71.996V69.448H192.048C190.714 69.448 189.743 69.6907 189.136 70.176C188.547 70.6613 188.252 71.3287 188.252 72.178C188.252 73.062 188.582 73.764 189.24 74.284C189.899 74.7867 190.826 75.038 192.022 75.038ZM212.332 63.598H207.028V76H205.728V63.598H200.424V62.428H212.332V63.598ZM215.116 62.428H216.416V68.616H225.62V62.428H226.92V76H225.62V69.76H216.416V76H215.116V62.428ZM237.89 67.368C239.571 67.3853 240.854 67.758 241.738 68.486C242.622 69.1967 243.064 70.2453 243.064 71.632C243.064 73.0707 242.596 74.1713 241.66 74.934C240.724 75.6967 239.372 76.0693 237.604 76.052L232.534 76V62.428H233.834V67.316L237.89 67.368ZM245.56 62.428H246.86V76H245.56V62.428ZM237.552 75.012C238.938 75.0293 239.987 74.752 240.698 74.18C241.408 73.608 241.764 72.7587 241.764 71.632C241.764 70.54 241.417 69.734 240.724 69.214C240.03 68.6767 238.973 68.3907 237.552 68.356L233.834 68.33V74.96L237.552 75.012ZM252.44 62.428H253.74V73.998L263.412 62.428H264.556V76H263.256V64.43L253.584 76H252.44V62.428ZM258.446 60.348C257.354 60.348 256.47 60.0707 255.794 59.516C255.118 58.944 254.771 58.1553 254.754 57.15H255.716C255.733 57.8607 255.993 58.424 256.496 58.84C257.016 59.256 257.666 59.464 258.446 59.464C259.226 59.464 259.867 59.256 260.37 58.84C260.873 58.424 261.133 57.8607 261.15 57.15H262.138C262.121 58.1553 261.774 58.944 261.098 59.516C260.422 60.0707 259.538 60.348 258.446 60.348ZM142.877 101.006C144.87 101.353 145.867 102.471 145.867 104.36C145.867 105.539 145.434 106.44 144.567 107.064C143.718 107.688 142.435 108 140.719 108H134.843V94.428H140.563C142.071 94.428 143.25 94.7313 144.099 95.338C144.966 95.9273 145.399 96.7767 145.399 97.886C145.399 98.6833 145.174 99.3507 144.723 99.888C144.29 100.408 143.674 100.781 142.877 101.006ZM136.117 100.616H140.485C141.646 100.616 142.539 100.399 143.163 99.966C143.787 99.5153 144.099 98.874 144.099 98.042C144.099 97.1927 143.787 96.56 143.163 96.144C142.556 95.7107 141.664 95.494 140.485 95.494H136.117V100.616ZM140.693 106.934C143.276 106.934 144.567 106.059 144.567 104.308C144.567 103.389 144.272 102.713 143.683 102.28C143.094 101.847 142.166 101.63 140.901 101.63H136.117V106.934H140.693ZM155.892 108.104C154.609 108.104 153.448 107.809 152.408 107.22C151.385 106.631 150.579 105.816 149.99 104.776C149.4 103.719 149.106 102.531 149.106 101.214C149.106 99.8967 149.4 98.718 149.99 97.678C150.579 96.6207 151.385 95.7973 152.408 95.208C153.448 94.6187 154.609 94.324 155.892 94.324C157.174 94.324 158.327 94.6187 159.35 95.208C160.39 95.7973 161.204 96.6207 161.794 97.678C162.383 98.718 162.678 99.8967 162.678 101.214C162.678 102.531 162.383 103.719 161.794 104.776C161.204 105.816 160.39 106.631 159.35 107.22C158.327 107.809 157.174 108.104 155.892 108.104ZM155.892 106.934C156.932 106.934 157.859 106.691 158.674 106.206C159.506 105.721 160.156 105.045 160.624 104.178C161.109 103.311 161.352 102.323 161.352 101.214C161.352 100.105 161.109 99.1167 160.624 98.25C160.156 97.3833 159.506 96.7073 158.674 96.222C157.859 95.7367 156.932 95.494 155.892 95.494C154.852 95.494 153.916 95.7367 153.084 96.222C152.269 96.7073 151.619 97.3833 151.134 98.25C150.666 99.1167 150.432 100.105 150.432 101.214C150.432 102.323 150.666 103.311 151.134 104.178C151.619 105.045 152.269 105.721 153.084 106.206C153.916 106.691 154.852 106.934 155.892 106.934ZM172.867 100.928C173.872 101.119 174.643 101.5 175.181 102.072C175.735 102.627 176.013 103.311 176.013 104.126C176.013 104.923 175.744 105.625 175.207 106.232C174.687 106.839 173.976 107.307 173.075 107.636C172.173 107.965 171.194 108.13 170.137 108.13C169.166 108.13 168.213 107.983 167.277 107.688C166.358 107.376 165.552 106.934 164.859 106.362L165.379 105.4C165.985 105.92 166.705 106.319 167.537 106.596C168.386 106.873 169.244 107.012 170.111 107.012C171.393 107.012 172.477 106.743 173.361 106.206C174.245 105.651 174.687 104.923 174.687 104.022C174.687 103.225 174.314 102.601 173.569 102.15C172.841 101.682 171.853 101.448 170.605 101.448H168.421V100.46H170.553C171.645 100.46 172.537 100.243 173.231 99.81C173.941 99.3767 174.297 98.796 174.297 98.068C174.297 97.2187 173.907 96.5687 173.127 96.118C172.364 95.65 171.385 95.416 170.189 95.416C168.663 95.416 167.225 95.806 165.873 96.586L165.483 95.546C167.008 94.6967 168.629 94.272 170.345 94.272C171.853 94.272 173.109 94.6013 174.115 95.26C175.12 95.9013 175.623 96.7767 175.623 97.886C175.623 98.5967 175.371 99.2207 174.869 99.758C174.366 100.295 173.699 100.685 172.867 100.928ZM188.58 101.006C190.574 101.353 191.57 102.471 191.57 104.36C191.57 105.539 191.137 106.44 190.27 107.064C189.421 107.688 188.138 108 186.422 108H180.546V94.428H186.266C187.774 94.428 188.953 94.7313 189.802 95.338C190.669 95.9273 191.102 96.7767 191.102 97.886C191.102 98.6833 190.877 99.3507 190.426 99.888C189.993 100.408 189.378 100.781 188.58 101.006ZM181.82 100.616H186.188C187.35 100.616 188.242 100.399 188.866 99.966C189.49 99.5153 189.802 98.874 189.802 98.042C189.802 97.1927 189.49 96.56 188.866 96.144C188.26 95.7107 187.367 95.494 186.188 95.494H181.82V100.616ZM186.396 106.934C188.979 106.934 190.27 106.059 190.27 104.308C190.27 103.389 189.976 102.713 189.386 102.28C188.797 101.847 187.87 101.63 186.604 101.63H181.82V106.934H186.396ZM203.025 94.324C204.29 94.324 205.434 94.6187 206.457 95.208C207.48 95.7973 208.277 96.612 208.849 97.652C209.438 98.692 209.733 99.8793 209.733 101.214C209.733 102.549 209.438 103.745 208.849 104.802C208.277 105.842 207.48 106.657 206.457 107.246C205.434 107.818 204.29 108.104 203.025 108.104C201.829 108.104 200.746 107.827 199.775 107.272C198.804 106.7 198.05 105.911 197.513 104.906V113.044H196.213V94.428H197.461V97.626C197.998 96.586 198.752 95.78 199.723 95.208C200.711 94.6187 201.812 94.324 203.025 94.324ZM202.947 106.934C203.987 106.934 204.923 106.691 205.755 106.206C206.587 105.721 207.237 105.045 207.705 104.178C208.19 103.311 208.433 102.323 208.433 101.214C208.433 100.105 208.19 99.1167 207.705 98.25C207.237 97.3833 206.587 96.7073 205.755 96.222C204.923 95.7367 203.987 95.494 202.947 95.494C201.907 95.494 200.971 95.7367 200.139 96.222C199.324 96.7073 198.674 97.3833 198.189 98.25C197.721 99.1167 197.487 100.105 197.487 101.214C197.487 102.323 197.721 103.311 198.189 104.178C198.674 105.045 199.324 105.721 200.139 106.206C200.971 106.691 201.907 106.934 202.947 106.934ZM218.408 94.324C220.089 94.324 221.38 94.7573 222.282 95.624C223.183 96.4733 223.634 97.73 223.634 99.394V108H222.386V105.582C221.952 106.379 221.32 107.003 220.488 107.454C219.656 107.887 218.659 108.104 217.498 108.104C215.99 108.104 214.794 107.749 213.91 107.038C213.043 106.327 212.61 105.391 212.61 104.23C212.61 103.103 213.008 102.193 213.806 101.5C214.62 100.789 215.912 100.434 217.68 100.434H222.334V99.342C222.334 98.0767 221.987 97.1147 221.294 96.456C220.618 95.7973 219.621 95.468 218.304 95.468C217.402 95.468 216.536 95.624 215.704 95.936C214.889 96.248 214.196 96.664 213.624 97.184L212.974 96.248C213.65 95.6413 214.464 95.1733 215.418 94.844C216.371 94.4973 217.368 94.324 218.408 94.324ZM217.68 107.038C218.806 107.038 219.76 106.778 220.54 106.258C221.337 105.738 221.935 104.984 222.334 103.996V101.448H217.706C216.371 101.448 215.4 101.691 214.794 102.176C214.204 102.661 213.91 103.329 213.91 104.178C213.91 105.062 214.239 105.764 214.898 106.284C215.556 106.787 216.484 107.038 217.68 107.038ZM237.989 95.598H232.685V108H231.385V95.598H226.081V94.428H237.989V95.598Z" fill="white"/>
</g>
<defs>
<filter id="filter0_dd_27_628" x="0" y="-3" width="320" height="175" filterUnits="userSpaceOnUse" color-interpolation-filters="sRGB">
<feFlood flood-opacity="0" result="BackgroundImageFix"/>
<feColorMatrix in="SourceAlpha" type="matrix" values="0 0 0 0 0 0 0 0 0 0 0 0 0 0 0 0 0 0 127 0" result="hardAlpha"/>
<feMorphology radius="5" operator="dilate" in="SourceAlpha" result="effect1_dropShadow_27_628"/>
<feOffset dy="2"/>
<feGaussianBlur stdDeviation="10"/>
<feComposite in2="hardAlpha" operator="out"/>
<feColorMatrix type="matrix" values="0 0 0 0 0 0 0 0 0 0 0 0 0 0 0 0 0 0 0.08 0"/>
<feBlend mode="normal" in2="BackgroundImageFix" result="effect1_dropShadow_27_628"/>
<feColorMatrix in="SourceAlpha" type="matrix" values="0 0 0 0 0 0 0 0 0 0 0 0 0 0 0 0 0 0 127 0" result="hardAlpha"/>
<feOffset dy="-2"/>
<feGaussianBlur stdDeviation="1"/>
<feComposite in2="hardAlpha" operator="out"/>
<feColorMatrix type="matrix" values="0 0 0 0 0 0 0 0 0 0 0 0 0 0 0 0 0 0 0.08 0"/>
<feBlend mode="normal" in2="effect1_dropShadow_27_628" result="effect2_dropShadow_27_628"/>
<feBlend mode="normal" in="SourceGraphic" in2="effect2_dropShadow_27_628" result="shape"/>
</filter>
</defs>
</svg>
